# xmcd
#
# Track frame offsets:
#	150
#	21212
#	46065
#	91157
#	116102
#	141762
#	163862
#	190557
#	214580
#	235372
#	251022
#	286947
#
# Disc length: 3831 seconds
#
# Revision: 1
# Processed by: cddbd v1.5.1PL0 Copyright (c) Steve Scherf et al.
# Submitted via: audiograbber 1.81.02
#
DISCID=a20ef50c
DTITLE=Bishop Eddie L. Long and Total Praise Choir - Spirit and Truth
DYEAR=2004
DGENRE=Gospel
TTITLE0=Suddenly
TTITLE1=Christ In Me
TTITLE2=Thank You For Your Grace
TTITLE3=He Said It
TTITLE4=Spirit and Truth
TTITLE5=He's Been So Good To Me
TTITLE6=Severant's Prayer
TTITLE7=By Faith
TTITLE8=O Give Thanks
TTITLE9=We Worship Christ In The King
TTITLE10=Anything Is Possible
TTITLE11=Daten-CD
EXTD=
EXTT0=
EXTT1=
EXTT2=
EXTT3=
EXTT4=
EXTT5=
EXTT6=
EXTT7=
EXTT8=
EXTT9=
EXTT10=
EXTT11=
PLAYORDER=
